# Blender 4.1.0
# www.blender.org
o bench
v -0.100000 -0.651813 0.824358
v -0.100000 -0.651995 0.673351
v -0.100000 -0.652169 0.529083
v -0.100000 -0.612799 0.529035
v -0.100000 -0.612625 0.673303
v -0.100000 -0.612443 0.824310
v -0.100000 -0.632035 0.529058
v -0.100000 -0.632577 0.824335
v -1.082646 -1.506434 0.328718
v -1.082647 -0.651821 0.816969
v -1.082647 -0.651987 0.679792
v -1.082646 -1.506600 0.191540
v -1.141702 -1.506434 0.328718
v -1.141702 -1.506600 0.191540
v -1.141702 -0.651987 0.679792
v -1.141702 -0.651821 0.816969
v -1.308057 -0.651813 0.824358
v -1.308057 -0.612443 0.824310
v -1.308057 -0.652169 0.529083
v -1.308057 -0.612799 0.529035
v -1.119441 -1.079171 0.537201
v -1.119441 -1.114007 0.503997
v -1.119441 -1.044410 0.503789
v -1.119441 -1.079255 0.467604
v -0.100000 -1.114007 0.503997
v -0.100000 -1.096688 0.519726
v -0.100000 -1.079171 0.537201
v -0.100000 -1.079255 0.467604
v -0.100000 -1.096536 0.484927
v -0.100000 -1.044410 0.503789
v -0.100000 -1.061737 0.485080
v -0.100000 -1.061890 0.519878
v 0.882816 -0.651821 0.816969
v 0.882816 -1.506434 0.328718
v 0.882816 -0.651987 0.679792
v 0.882816 -1.506600 0.191540
v 0.941871 -1.506600 0.191540
v 0.941871 -1.506434 0.328718
v 0.941871 -0.651987 0.679792
v 0.941871 -0.651821 0.816969
v 0.943409 -0.651845 0.797162
v 0.943409 -0.710900 0.797234
v 0.943409 -0.652559 0.206612
v 0.943409 -0.711614 0.206683
v 1.002465 -0.711614 0.206683
v 1.002465 -0.710900 0.797234
v 1.002465 -0.652559 0.206612
v 1.002465 -0.651845 0.797162
v 1.108057 -0.651812 0.824358
v 1.108057 -0.612442 0.824310
v 1.108057 -0.652169 0.529083
v 1.108057 -0.612799 0.529035
v 0.919441 -1.079171 0.537201
v 0.919441 -1.044410 0.503789
v 0.919441 -1.079255 0.467604
v 0.919441 -1.114007 0.503997
v -1.074321 -0.653702 0.188266
v -1.074321 -1.505379 0.681620
v -1.074321 -0.653047 0.325443
v -1.074321 -1.504724 0.818796
v -1.133376 -1.504724 0.818796
v -1.133376 -1.505379 0.681620
v -1.133376 -0.653047 0.325443
v -1.133376 -0.653702 0.188266
v -1.143409 -0.653607 0.208073
v -1.143409 -0.712662 0.208355
v -1.143409 -0.650788 0.798618
v -1.143409 -0.709843 0.798899
v -1.202465 -0.709843 0.798899
v -1.202465 -0.712662 0.208355
v -1.202465 -0.650788 0.798618
v -1.202465 -0.653607 0.208073
v -0.100000 -0.653737 0.180878
v -1.308057 -0.653737 0.180878
v -0.100000 -0.653016 0.331883
v -0.100000 -0.614367 0.180690
v -0.100000 -0.613647 0.331695
v -1.308057 -0.614367 0.180690
v -1.308057 -0.652328 0.476150
v -1.308057 -0.612958 0.475962
v -0.100000 -0.652328 0.476150
v -0.100000 -0.632194 0.476054
v -0.100000 -0.634501 0.180786
v -0.100000 -0.612958 0.475962
v -1.119441 -1.079370 0.470585
v -1.119441 -1.079038 0.540182
v -0.100000 -1.096783 0.488165
v -0.100000 -1.079370 0.470585
v -0.100000 -1.096422 0.522962
v -0.100000 -1.061625 0.522602
v -0.100000 -1.079038 0.540182
v -0.100000 -1.061985 0.487805
v 0.874321 -1.505379 0.681620
v 0.874321 -0.653701 0.188266
v 0.874321 -0.653047 0.325443
v 0.874321 -1.504724 0.818796
v 0.933376 -1.505379 0.681620
v 0.933376 -1.504724 0.818796
v 0.933376 -0.653047 0.325443
v 0.933376 -0.653701 0.188266
v 1.108057 -0.653737 0.180878
v 1.108057 -0.614367 0.180690
v 1.108057 -0.652327 0.476150
v 1.108057 -0.612958 0.475962
v 0.919441 -1.079370 0.470585
v 0.919441 -1.079038 0.540182
v -1.082646 -1.506600 0.191540
v -1.141702 -1.506600 0.191540
v -1.141702 -1.506600 0.191540
v -1.141702 -0.651987 0.679792
v -1.141702 -1.506600 0.191540
v -1.141702 -0.651987 0.679792
v -1.082647 -0.651821 0.816969
v -1.141702 -0.651821 0.816969
v -1.141702 -0.651987 0.679792
v -1.141702 -0.651821 0.816969
v -1.308057 -0.612443 0.824310
v -1.308057 -0.652169 0.529083
v -0.100000 -0.652169 0.529083
v -0.100000 -0.652169 0.529083
v -1.308057 -0.612799 0.529035
v -1.308057 -0.612799 0.529035
v -1.308057 -0.652169 0.529083
v -1.308057 -0.612799 0.529035
v -1.308057 -0.652169 0.529083
v -1.119441 -1.079171 0.537201
v -1.119441 -1.114007 0.503997
v -1.119441 -1.079255 0.467604
v -1.119441 -1.044410 0.503789
v -1.119441 -1.114007 0.503997
v -0.100000 -1.114007 0.503997
v -1.119441 -1.079171 0.537201
v -1.119441 -1.114007 0.503997
v -1.119441 -1.079255 0.467604
v -0.100000 -1.079255 0.467604
v -1.119441 -1.114007 0.503997
v -1.119441 -1.079255 0.467604
v -1.119441 -1.044410 0.503789
v -0.100000 -1.044410 0.503789
v -1.119441 -1.079255 0.467604
v -1.119441 -1.044410 0.503789
v -1.119441 -1.079171 0.537201
v -0.100000 -1.079171 0.537201
v -1.119441 -1.044410 0.503789
v -1.119441 -1.079171 0.537201
v 0.882816 -1.506600 0.191540
v 0.941871 -1.506600 0.191540
v 0.941871 -1.506600 0.191540
v 0.941871 -0.651987 0.679792
v 0.941871 -0.651987 0.679792
v 0.941871 -1.506600 0.191540
v 0.882816 -0.651821 0.816969
v 0.941871 -0.651821 0.816969
v 0.941871 -0.651821 0.816969
v 0.941871 -0.651987 0.679792
v 0.943409 -0.710900 0.797234
v 0.943409 -0.711614 0.206683
v 1.002465 -0.711614 0.206683
v 1.002465 -0.711614 0.206683
v 1.002465 -0.710900 0.797234
v 0.943409 -0.710900 0.797234
v 0.943409 -0.711614 0.206683
v 0.943409 -0.652559 0.206612
v 1.002465 -0.652559 0.206612
v 1.002465 -0.652559 0.206612
v 1.002465 -0.711614 0.206683
v 0.943409 -0.711614 0.206683
v 0.943409 -0.652559 0.206612
v 0.943409 -0.651845 0.797162
v 1.002465 -0.651845 0.797162
v 1.002465 -0.651845 0.797162
v 1.002465 -0.652559 0.206612
v 0.943409 -0.652559 0.206612
v 0.943409 -0.651845 0.797162
v 0.943409 -0.710900 0.797234
v 1.002465 -0.710900 0.797234
v 1.002465 -0.710900 0.797234
v 1.002465 -0.651845 0.797162
v 0.943409 -0.651845 0.797162
v 1.108057 -0.612442 0.824310
v 1.108057 -0.652169 0.529083
v -0.100000 -0.652169 0.529083
v -0.100000 -0.652169 0.529083
v 1.108057 -0.612799 0.529035
v 1.108057 -0.612799 0.529035
v 1.108057 -0.652169 0.529083
v 1.108057 -0.612799 0.529035
v 1.108057 -0.652169 0.529083
v 0.919441 -1.079171 0.537201
v 0.919441 -1.114007 0.503997
v 0.919441 -1.079255 0.467604
v 0.919441 -1.044410 0.503789
v 0.919441 -1.114007 0.503997
v -0.100000 -1.114007 0.503997
v 0.919441 -1.114007 0.503997
v 0.919441 -1.079171 0.537201
v 0.919441 -1.079255 0.467604
v -0.100000 -1.079255 0.467604
v 0.919441 -1.079255 0.467604
v 0.919441 -1.114007 0.503997
v 0.919441 -1.044410 0.503789
v -0.100000 -1.044410 0.503789
v 0.919441 -1.044410 0.503789
v 0.919441 -1.079255 0.467604
v 0.919441 -1.079171 0.537201
v -0.100000 -1.079171 0.537201
v 0.919441 -1.079171 0.537201
v 0.919441 -1.044410 0.503789
v -1.074321 -1.504724 0.818796
v -1.133376 -1.504724 0.818796
v -1.133376 -1.504724 0.818796
v -1.133376 -0.653047 0.325443
v -1.133376 -0.653047 0.325443
v -1.133376 -1.504724 0.818796
v -1.074321 -0.653702 0.188266
v -1.133376 -0.653702 0.188266
v -1.133376 -0.653702 0.188266
v -1.133376 -0.653047 0.325443
v -1.143409 -0.712662 0.208355
v -1.143409 -0.709843 0.798899
v -1.202465 -0.709843 0.798899
v -1.202465 -0.709843 0.798899
v -1.202465 -0.712662 0.208355
v -1.143409 -0.712662 0.208355
v -1.143409 -0.709843 0.798899
v -1.143409 -0.650788 0.798618
v -1.202465 -0.650788 0.798618
v -1.202465 -0.650788 0.798618
v -1.202465 -0.709843 0.798899
v -1.143409 -0.709843 0.798899
v -1.143409 -0.650788 0.798618
v -1.143409 -0.653607 0.208073
v -1.202465 -0.653607 0.208073
v -1.202465 -0.653607 0.208073
v -1.202465 -0.650788 0.798618
v -1.143409 -0.650788 0.798618
v -1.143409 -0.653607 0.208073
v -1.143409 -0.712662 0.208355
v -1.202465 -0.712662 0.208355
v -1.202465 -0.712662 0.208355
v -1.202465 -0.653607 0.208073
v -1.143409 -0.653607 0.208073
v -1.308057 -0.614367 0.180690
v -1.308057 -0.652328 0.476150
v -0.100000 -0.652328 0.476150
v -0.100000 -0.652328 0.476150
v -1.308057 -0.612958 0.475962
v -1.308057 -0.612958 0.475962
v -1.308057 -0.652328 0.476150
v -1.308057 -0.612958 0.475962
v -1.308057 -0.652328 0.476150
v -1.119441 -1.079370 0.470585
v -1.119441 -1.114007 0.503997
v -1.119441 -1.079038 0.540182
v -1.119441 -1.044410 0.503789
v -1.119441 -1.114007 0.503997
v -0.100000 -1.114007 0.503997
v -1.119441 -1.114007 0.503997
v -1.119441 -1.079370 0.470585
v -1.119441 -1.079038 0.540182
v -0.100000 -1.079038 0.540182
v -1.119441 -1.079038 0.540182
v -1.119441 -1.114007 0.503997
v -1.119441 -1.044410 0.503789
v -0.100000 -1.044410 0.503789
v -1.119441 -1.044410 0.503789
v -1.119441 -1.079038 0.540182
v -1.119441 -1.079370 0.470585
v -0.100000 -1.079370 0.470585
v -1.119441 -1.079370 0.470585
v -1.119441 -1.044410 0.503789
v 0.874321 -1.504724 0.818796
v 0.933376 -1.504724 0.818796
v 0.933376 -1.504724 0.818796
v 0.933376 -0.653047 0.325443
v 0.933376 -1.504724 0.818796
v 0.933376 -0.653047 0.325443
v 0.874321 -0.653701 0.188266
v 0.933376 -0.653701 0.188266
v 0.933376 -0.653047 0.325443
v 0.933376 -0.653701 0.188266
v 1.108057 -0.614367 0.180690
v 1.108057 -0.652327 0.476150
v -0.100000 -0.652328 0.476150
v -0.100000 -0.652328 0.476150
v 1.108057 -0.612958 0.475962
v 1.108057 -0.612958 0.475962
v 1.108057 -0.652327 0.476150
v 1.108057 -0.612958 0.475962
v 1.108057 -0.652327 0.476150
v 0.919441 -1.079370 0.470585
v 0.919441 -1.114007 0.503997
v 0.919441 -1.079038 0.540182
v 0.919441 -1.044410 0.503789
v 0.919441 -1.114007 0.503997
v -0.100000 -1.114007 0.503997
v 0.919441 -1.079370 0.470585
v 0.919441 -1.114007 0.503997
v 0.919441 -1.079038 0.540182
v -0.100000 -1.079038 0.540182
v 0.919441 -1.114007 0.503997
v 0.919441 -1.079038 0.540182
v 0.919441 -1.044410 0.503789
v -0.100000 -1.044410 0.503789
v 0.919441 -1.079038 0.540182
v 0.919441 -1.044410 0.503789
v 0.919441 -1.079370 0.470585
v -0.100000 -1.079370 0.470585
v 0.919441 -1.044410 0.503789
v 0.919441 -1.079370 0.470585
vn -0.0000 -0.7062 0.7080
vn -0.0000 -1.0000 0.0012
vn -0.0000 -0.0012 -1.0000
vn -0.0000 0.7062 -0.7080
vn -0.0000 1.0000 -0.0012
vn -0.0000 0.7080 0.7063
vn -0.0000 0.0012 1.0000
vn 0.6098 -0.6852 0.3983
vn 0.5559 -0.4124 0.7218
vn 0.6098 0.6852 -0.3983
vn 0.5559 0.4124 -0.7218
vn -0.6098 -0.6853 0.3983
vn -1.0000 -0.0000 -0.0000
vn -0.5559 -0.4123 0.7218
vn -0.5774 -0.5766 0.5781
vn -0.7071 -0.7071 0.0009
vn -0.0000 -1.0000 0.0030
vn -0.0000 -0.6895 0.7243
vn -0.0000 -0.7063 0.7080
vn -0.0000 0.7063 -0.7080
vn -0.0000 -0.7228 -0.6910
vn -0.0000 1.0000 -0.0030
vn -0.0000 0.7201 -0.6939
vn -0.0000 0.6928 0.7212
vn -0.5559 -0.4124 0.7218
vn -0.6098 -0.6852 0.3983
vn -0.6098 0.6852 -0.3983
vn -0.5559 0.4124 -0.7218
vn 1.0000 -0.0000 -0.0000
vn 0.6098 -0.6853 0.3983
vn 0.5559 -0.4123 0.7218
vn 0.5774 -0.5766 0.5781
vn 0.7071 -0.7071 0.0009
vn 0.5559 -0.4167 -0.7193
vn 0.6098 -0.6876 -0.3942
vn 0.6098 0.6876 0.3942
vn 0.5559 0.4167 0.7193
vn -0.6098 -0.6876 -0.3942
vn -0.5559 -0.4167 -0.7193
vn -0.0000 -0.7105 -0.7037
vn -0.5774 -0.5801 -0.5746
vn -0.0000 -1.0000 0.0048
vn -0.0000 0.7037 -0.7105
vn -0.0000 1.0000 -0.0048
vn -0.7071 -0.7071 0.0034
vn -0.0000 0.0048 1.0000
vn -0.0000 -0.0048 -1.0000
vn -0.0000 0.7105 0.7037
vn -0.0000 -0.6938 -0.7202
vn -0.0000 -0.7187 0.6953
vn -0.0000 0.7242 0.6895
vn -0.0000 0.6884 -0.7253
vn -0.6098 0.6876 0.3942
vn -0.5559 0.4167 0.7193
vn 0.5774 -0.5801 -0.5746
vn 0.7071 -0.7071 0.0034
vn -0.0000 0.4961 -0.8683
vn -0.0000 -0.7373 -0.6755
vn -0.0000 0.6772 0.7358
vn -0.0000 -0.6723 0.7403
vn 0.0006 -0.6900 0.7239
vn -0.0000 -0.7080 -0.7063
vn -0.0005 -0.7232 -0.6906
vn -0.0000 0.7337 -0.6795
vn -0.0005 0.7203 -0.6936
vn 0.0005 0.6930 0.7210
vn -0.0006 -0.6900 0.7239
vn 0.0005 -0.7232 -0.6906
vn 0.0005 0.7203 -0.6936
vn -0.0005 0.6930 0.7210
vn -0.0000 0.5012 0.8653
vn -0.0000 -0.7333 0.6799
vn -0.0000 0.6728 -0.7398
vn -0.0000 -0.6767 -0.7362
vn 0.0006 -0.6943 -0.7197
vn -0.0000 -0.7037 0.7105
vn -0.0005 -0.7191 0.6949
vn -0.0000 0.7377 0.6751
vn -0.0005 0.7245 0.6893
vn 0.0005 0.6887 -0.7251
vn -0.0006 -0.6943 -0.7197
vn 0.0005 -0.7191 0.6949
vn 0.0005 0.7245 0.6893
vn -0.0005 0.6887 -0.7251
vt 0.920682 0.300475
vt 0.127203 0.314481
vt 0.864053 0.203168
vt 0.070574 0.217173
vt 0.074702 0.462488
vt 0.128024 0.363241
vt 0.868181 0.448483
vt 0.921503 0.349235
vt 0.016614 0.316433
vt 0.017434 0.365193
vt 0.863233 0.154408
vt 0.069754 0.168413
vt 0.974642 0.201216
vt 0.973822 0.152456
vt 0.089915 0.820851
vt 0.920130 0.821848
vt 0.089753 0.900363
vt 0.089958 0.800122
vt 0.090120 0.720610
vt 0.920172 0.801118
vt 0.919812 0.977322
vt 0.946868 0.977355
vt 0.947186 0.821881
vt 0.090318 0.623918
vt 0.920533 0.624914
vt 0.090297 0.634519
vt 0.089936 0.810723
vt 0.089598 0.976325
vt 0.920490 0.645644
vt 0.090276 0.644648
vt 0.028895 0.487965
vt 0.030311 0.464707
vt 0.053569 0.466122
vt 0.052153 0.489380
vt 0.497330 0.538008
vt 0.497330 0.548174
vt 0.014650 0.548174
vt 0.497093 0.538174
vt 0.497093 0.548339
vt 0.014412 0.548339
vt 0.497330 0.538283
vt 0.497330 0.548449
vt 0.014650 0.548449
vt 0.497093 0.538464
vt 0.497093 0.548630
vt 0.014412 0.548630
vt 0.014650 0.527956
vt 0.497330 0.527956
vt 0.014412 0.528121
vt 0.497093 0.528121
vt 0.014650 0.528231
vt 0.497330 0.528231
vt 0.014412 0.528412
vt 0.497093 0.528412
vt 0.010000 0.035010
vt 0.011824 0.128893
vt 0.857046 0.108632
vt 0.855222 0.014748
vt 0.855314 0.019945
vt 0.010000 0.034770
vt 0.011335 0.128663
vt 0.856648 0.113839
vt 0.857542 0.019397
vt 0.009049 0.038134
vt 0.011209 0.135922
vt 0.859701 0.117185
vt 0.971607 0.108685
vt 0.971607 0.023815
vt 0.873795 0.023815
vt 0.873795 0.108685
vt 0.857491 0.017079
vt 0.008998 0.035815
vt 0.011157 0.133603
vt 0.859650 0.114867
vt 0.973039 0.107751
vt 0.973039 0.022881
vt 0.875227 0.022881
vt 0.875227 0.107751
s 1
f 10/1/9 9/2/8 11/3/10
f 12/4/11 11/3/10 9/2/8
f 14/5/13 13/6/12 15/7/13
f 16/8/14 15/7/13 13/6/12
f 107/9/2 9/2/8 108/10/2
f 13/6/12 109/10/2 9/2/8
f 11/3/10 12/4/11 110/11/57
f 111/12/57 112/11/57 12/4/11
f 113/13/5 11/3/10 114/14/5
f 115/11/5 116/14/5 11/3/10
f 9/2/8 10/1/9 13/6/12
f 16/8/14 13/6/12 10/1/9
f 1/15/1 17/16/15 2/17/2
f 6/18/6 5/19/5 18/20/6
f 19/21/16 17/16/15 20/22/13
f 117/23/13 20/22/13 17/16/15
f 3/24/3 118/25/3 7/26/3
f 6/18/6 18/20/6 8/27/7
f 119/28/2 2/17/2 17/16/15
f 19/21/16 120/28/2 17/16/15
f 121/29/5 5/19/5 4/30/4
f 122/29/5 18/20/6 5/19/5
f 4/30/4 7/26/3 123/25/3
f 124/29/3 4/30/4 125/25/3
f 1/15/1 8/27/7 18/20/6
f 17/16/15 1/15/1 18/20/6
f 21/31/13 23/32/13 24/33/13
f 24/33/13 22/34/13 21/31/13
f 26/35/18 27/36/19 126/37/19
f 29/38/21 25/39/17 127/40/58
f 31/41/23 28/42/20 128/43/20
f 32/44/24 30/45/22 129/46/59
f 26/35/18 130/47/60 131/48/60
f 132/37/61 133/47/61 26/35/18
f 29/38/21 134/49/62 135/50/62
f 136/40/63 137/49/63 29/38/21
f 31/41/23 138/51/64 139/52/64
f 140/43/65 141/51/65 31/41/23
f 32/44/24 142/53/6 143/54/6
f 144/46/66 145/53/66 32/44/24
f 34/2/26 33/1/25 35/3/27
f 35/3/27 36/4/28 34/2/26
f 38/6/30 37/5/29 39/7/29
f 39/7/29 40/8/31 38/6/30
f 34/2/26 146/9/2 147/10/2
f 148/10/2 38/6/30 34/2/26
f 36/4/28 35/3/27 149/11/57
f 150/11/57 151/12/57 36/4/28
f 35/3/27 152/13/5 153/14/5
f 154/14/5 155/11/5 35/3/27
f 33/1/25 34/2/26 38/6/30
f 38/6/30 40/8/31 33/1/25
f 42/55/13 41/56/13 43/57/13
f 43/57/13 44/58/13 42/55/13
f 46/59/29 45/60/29 47/61/29
f 47/61/29 48/62/29 46/59/29
f 156/63/2 157/64/2 158/65/2
f 159/65/2 160/66/2 161/63/2
f 162/67/3 163/68/3 164/69/3
f 165/69/3 166/70/3 167/67/3
f 168/71/5 169/72/5 170/73/5
f 171/73/5 172/74/5 173/71/5
f 174/75/7 175/76/7 176/77/7
f 177/77/7 178/78/7 179/75/7
f 49/16/32 1/15/1 2/17/2
f 5/19/5 6/18/6 50/20/6
f 49/16/32 51/21/33 52/22/29
f 52/22/29 180/23/29 49/16/32
f 181/25/3 3/24/3 7/26/3
f 50/20/6 6/18/6 8/27/7
f 2/17/2 182/28/2 49/16/32
f 183/28/2 51/21/33 49/16/32
f 5/19/5 184/29/5 4/30/4
f 50/20/6 185/29/5 5/19/5
f 7/26/3 4/30/4 186/25/3
f 4/30/4 187/29/3 188/25/3
f 8/27/7 1/15/1 50/20/6
f 1/15/1 49/16/32 50/20/6
f 54/32/29 53/31/29 55/33/29
f 56/34/29 55/33/29 53/31/29
f 27/36/19 26/35/18 189/37/19
f 25/39/17 29/38/21 190/40/58
f 28/42/20 31/41/23 191/43/20
f 30/45/22 32/44/24 192/46/59
f 193/47/60 26/35/18 194/48/60
f 195/47/67 196/37/67 26/35/18
f 197/49/62 29/38/21 198/50/62
f 199/49/68 200/40/68 29/38/21
f 201/51/64 31/41/23 202/52/64
f 203/51/69 204/43/69 31/41/23
f 205/53/6 32/44/24 206/54/6
f 207/53/70 208/46/70 32/44/24
f 58/2/35 57/1/34 59/3/36
f 59/3/36 60/4/37 58/2/35
f 62/6/38 61/5/13 63/7/13
f 63/7/13 64/8/39 62/6/38
f 58/2/35 209/9/42 210/10/42
f 211/10/42 62/6/38 58/2/35
f 60/4/37 59/3/36 212/11/71
f 213/11/71 214/12/71 60/4/37
f 59/3/36 215/13/44 216/14/44
f 217/14/44 218/11/44 59/3/36
f 57/1/34 58/2/35 62/6/38
f 62/6/38 64/8/39 57/1/34
f 66/55/29 65/56/29 67/57/29
f 67/57/29 68/58/29 66/55/29
f 70/59/13 69/60/13 71/61/13
f 71/61/13 72/62/13 70/59/13
f 219/63/42 220/64/42 221/65/42
f 222/65/42 223/66/42 224/63/42
f 225/67/46 226/68/46 227/69/46
f 228/69/46 229/70/46 230/67/46
f 231/71/44 232/72/44 233/73/44
f 234/73/44 235/74/44 236/71/44
f 237/75/47 238/76/47 239/77/47
f 240/77/47 241/78/47 242/75/47
f 74/16/41 73/15/40 75/17/42
f 77/19/44 76/18/43 78/20/43
f 74/16/41 79/21/45 80/22/13
f 80/22/13 243/23/13 74/16/41
f 244/25/46 81/24/46 82/26/46
f 78/20/43 76/18/43 83/27/47
f 75/17/42 245/28/42 74/16/41
f 246/28/42 79/21/45 74/16/41
f 77/19/44 247/29/44 84/30/48
f 78/20/43 248/29/44 77/19/44
f 82/26/46 84/30/48 249/25/46
f 84/30/48 250/29/46 251/25/46
f 83/27/47 73/15/40 78/20/43
f 73/15/40 74/16/41 78/20/43
f 23/32/13 85/31/13 86/33/13
f 22/34/13 86/33/13 85/31/13
f 88/36/40 87/35/49 252/37/40
f 25/39/17 89/38/50 253/40/72
f 91/42/48 90/41/51 254/43/48
f 30/45/22 92/44/52 255/46/73
f 256/47/74 87/35/49 257/48/74
f 258/47/75 259/37/75 87/35/49
f 260/49/76 89/38/50 261/50/76
f 262/49/77 263/40/77 89/38/50
f 264/51/78 90/41/51 265/52/78
f 266/51/79 267/43/79 90/41/51
f 268/53/43 92/44/52 269/54/43
f 270/53/80 271/46/80 92/44/52
f 94/1/39 93/2/38 95/3/53
f 96/4/54 95/3/53 93/2/38
f 98/5/29 97/6/35 99/7/29
f 100/8/34 99/7/29 97/6/35
f 272/9/42 93/2/38 273/10/42
f 97/6/35 274/10/42 93/2/38
f 95/3/53 96/4/54 275/11/71
f 276/12/71 277/11/71 96/4/54
f 278/13/44 95/3/53 279/14/44
f 280/11/44 281/14/44 95/3/53
f 93/2/38 94/1/39 97/6/35
f 100/8/34 97/6/35 94/1/39
f 73/15/40 101/16/55 75/17/42
f 76/18/43 77/19/44 102/20/43
f 103/21/56 101/16/55 104/22/29
f 282/23/29 104/22/29 101/16/55
f 81/24/46 283/25/46 82/26/46
f 76/18/43 102/20/43 83/27/47
f 284/28/42 75/17/42 101/16/55
f 103/21/56 285/28/42 101/16/55
f 286/29/44 77/19/44 84/30/48
f 287/29/44 102/20/43 77/19/44
f 84/30/48 82/26/46 288/25/46
f 289/29/46 84/30/48 290/25/46
f 73/15/40 83/27/47 102/20/43
f 101/16/55 73/15/40 102/20/43
f 105/31/29 54/32/29 106/33/29
f 106/33/29 56/34/29 105/31/29
f 87/35/49 88/36/40 291/37/40
f 89/38/50 25/39/17 292/40/72
f 90/41/51 91/42/48 293/43/48
f 92/44/52 30/45/22 294/46/73
f 87/35/49 295/47/74 296/48/74
f 297/37/81 298/47/81 87/35/49
f 89/38/50 299/49/76 300/50/76
f 301/40/82 302/49/82 89/38/50
f 90/41/51 303/51/78 304/52/78
f 305/43/83 306/51/83 90/41/51
f 92/44/52 307/53/43 308/54/43
f 309/46/84 310/53/84 92/44/52
